<svg xmlns="http://www.w3.org/2000/svg" width="34" height="34" viewBox="0 0 34 34">
    <defs>
        <style>
            .cls-2{fill:none;stroke:#fff;stroke-width:1.5px;stroke-linecap:round;stroke-linejoin:round}
        </style>
    </defs>
    <g id="ic_입출차정보_n" transform="translate(-38 -188)">
        <rect id="사각형_5" width="34" height="34" fill="none" rx="5" transform="translate(38 188)"/>
        <g id="그룹_25" transform="translate(-654.471 -287.964)">
            <path id="패스_7" d="M721.563 488.935a1.075 1.075 0 0 0-1.021-1.122h-1.963l-1.331-2.522a3.616 3.616 0 0 0-3.273-2.268h-9.228a3.616 3.616 0 0 0-3.273 2.268l-1.331 2.522H698.4a1.075 1.075 0 0 0-1.021 1.122 1.105 1.105 0 0 0 .785 1.091l.684.244-.4.757a9.826 9.826 0 0 0-.8 3.907v6.646a1.27 1.27 0 0 0 1.207 1.326h2.461a1.27 1.27 0 0 0 1.207-1.326v-1.116h13.688v1.116a1.27 1.27 0 0 0 1.206 1.326h2.461a1.27 1.27 0 0 0 1.207-1.326v-6.646a9.824 9.824 0 0 0-.8-3.907l-.365-.691.868-.31a1.105 1.105 0 0 0 .775-1.091z" class="cls-2"/>
        </g>
        <g id="그룹_26" transform="translate(.702 -10.264)">
            <path id="패스_14" d="M0 0v3.192h3.192" class="cls-2" transform="rotate(45 -231.742 167.776)"/>
            <path id="패스_15" d="M0 3.192V0h3.191" class="cls-2" transform="rotate(135 -14.535 120.078)"/>
            <path id="선_6" fill="none" stroke="#fff" stroke-width="1.5px" d="M0 0L11.27 0" transform="translate(48.5 215.264)"/>
        </g>
    </g>
</svg>
