<svg xmlns="http://www.w3.org/2000/svg" width="34" height="34" viewBox="0 0 34 34">
    <defs>
        <style>
            .cls-1,.cls-2,.cls-3{fill:none}.cls-2,.cls-3{stroke:#fff;stroke-width:1.5px}.cls-3{stroke-linecap:round}.cls-5{fill:#fff}.cls-6{stroke:none}
        </style>
    </defs>
    <g id="ic_게이트웨이버전_n" transform="translate(-1326 -5943)">
        <rect id="사각형_4" width="34" height="34" class="cls-1" rx="5" transform="translate(1326 5943)"/>
        <g id="사각형_67" class="cls-2" transform="translate(1334 5955)">
            <rect width="18" height="8" class="cls-6" rx="2"/>
            <rect width="16.5" height="6.5" x=".75" y=".75" class="cls-1" rx="1.25"/>
        </g>
        <g id="사각형_89" class="cls-2" transform="translate(1334 5948.5)">
            <rect width="18" height="8" class="cls-6" rx="2"/>
            <rect width="16.5" height="6.5" x=".75" y=".75" class="cls-1" rx="1.25"/>
        </g>
        <g id="그룹_96" transform="translate(1300 5754.236)">
            <path id="선_6" d="M0 0L2 0" class="cls-3" transform="translate(48.5 215.264)"/>
        </g>
        <g id="그룹_117" transform="rotate(90 -2177.799 3736.063)">
            <path id="선_6-2" d="M0 0L1 0" class="cls-3" transform="translate(49.138 215.264)"/>
        </g>
        <g id="그룹_116" transform="translate(1287.091 5754.236)">
            <path id="선_6-3" d="M0 0L1.409 0" class="cls-3" transform="translate(48.5 215.264)"/>
        </g>
        <g id="합치기_1" fill="none">
            <path d="M-5182 801a2 2 0 0 1-2-2v-1.715a2 2 0 0 1 2-2h1V795a2 2 0 0 1 2-2h2a2 2 0 0 1 2 2v.285h1a2 2 0 0 1 2 2V799a2 2 0 0 1-2 2z" class="cls-6" transform="translate(6521 5171)"/>
            <path fill="#fff" d="M-5174 799.5c.276 0 .5-.225.5-.5v-1.715c0-.275-.224-.5-.5-.5h-2.5v-1.784c0-.277-.224-.501-.5-.501h-2c-.276 0-.5.224-.5.5v1.786h-2.5c-.276 0-.5.224-.5.5V799c0 .275.224.5.5.5h8m0 1.5h-8c-1.104 0-2-.896-2-2v-1.715c0-1.104.896-2 2-2h1v-.284c0-1.105.896-2.001 2-2.001h2c1.105 0 2 .896 2 2v.286h1c1.105 0 2 .895 2 2V799c0 1.104-.895 2-2 2z" transform="translate(6521 5171)"/>
        </g>
        <g id="타원_8" class="cls-2" transform="translate(1350 5967)">
            <circle cx="2.5" cy="2.5" r="2.5" class="cls-6"/>
            <circle cx="2.5" cy="2.5" r="1.75" class="cls-1"/>
        </g>
        <circle id="타원_13" cx="1" cy="1" r="1" class="cls-5" transform="translate(1347 5958)"/>
        <circle id="타원_15" cx="1" cy="1" r="1" class="cls-5" transform="translate(1347 5951.5)"/>
        <g id="타원_9" class="cls-2" transform="translate(1331 5967)">
            <circle cx="2.5" cy="2.5" r="2.5" class="cls-6"/>
            <circle cx="2.5" cy="2.5" r="1.75" class="cls-1"/>
        </g>
    </g>
</svg>
