<svg xmlns="http://www.w3.org/2000/svg" width="28" height="28" viewBox="0 0 28 28">
    <defs>
        <style>
            .cls-1{fill:none}.cls-2{fill:#fff;stroke:#474747;stroke-width:1.5px}.cls-5{stroke:none}
        </style>
    </defs>
    <g id="ic_ID" transform="translate(0 .417)">
        <rect id="사각형_4" width="28" height="28" class="cls-1" rx="5" transform="translate(0 -.417)"/>
        <g id="사각형_67" class="cls-2" transform="translate(4.868 3.631)">
            <rect width="18.434" height="22.121" class="cls-5" rx="2"/>
            <rect width="16.934" height="20.621" x=".75" y=".75" class="cls-1" rx="1.25"/>
        </g>
        <g id="사각형_66" class="cls-2" transform="translate(11.385 .81)">
            <rect width="5.53" height="6.452" class="cls-5" rx="2"/>
            <rect width="4.03" height="4.952" x=".75" y=".75" class="cls-1" rx="1.25"/>
        </g>
        <g id="타원_21" fill="none" stroke="#474747" stroke-width="1.5px" transform="translate(11.456 9.161)">
            <circle cx="2.765" cy="2.765" r="2.765" class="cls-5"/>
            <circle cx="2.765" cy="2.765" r="2.015" class="cls-1"/>
        </g>
        <g id="패스_31" fill="none">
            <path d="M5.395 0a5.4 5.4 0 0 1 5.395 5.395c0 2.979-10.79 2.979-10.79 0A5.4 5.4 0 0 1 5.395 0z" class="cls-5" transform="translate(8.691 13.634)"/>
            <path fill="#474747" d="M5.395 1.5C3.282 1.5 1.557 3.191 1.5 5.29c.116.108.45.322 1.141.512.768.211 1.745.327 2.753.327 1.007 0 1.985-.116 2.752-.327.692-.19 1.026-.404 1.141-.511C9.233 3.19 7.508 1.5 5.395 1.5m0-1.5c2.98 0 5.395 2.415 5.395 5.395 0 1.49-2.698 2.234-5.395 2.234C2.697 7.63 0 6.884 0 5.395 0 2.415 2.415 0 5.395 0z" transform="translate(8.691 13.634)"/>
        </g>
    </g>
</svg>
