<svg xmlns="http://www.w3.org/2000/svg" width="28" height="28.011" viewBox="0 0 28 28.011">
    <defs>
        <style>
            .cls-2,.cls-4{fill:none}.cls-4{stroke:#474747;stroke-linecap:round}.cls-6{stroke:none}
        </style>
    </defs>
    <g id="ic_password" transform="translate(0 .349)">
        <g id="사각형_101" fill="none" stroke="#474747" stroke-width="1.5px">
            <path d="M4 0h4a4 4 0 0 1 4 4v7H0V4a4 4 0 0 1 4-4z" class="cls-6" transform="translate(8 .651)"/>
            <path d="M4 .75h4A3.25 3.25 0 0 1 11.25 4v5.5a.75.75 0 0 1-.75.75h-9a.75.75 0 0 1-.75-.75V4A3.25 3.25 0 0 1 4 .75z" class="cls-2" transform="translate(8 .651)"/>
        </g>
        <rect id="사각형_4" width="28" height="28" class="cls-2" rx="5" transform="translate(0 -.349)"/>
        <g id="사각형_67" fill="#fff" stroke="#474747" stroke-width="1.5px" transform="translate(5 5.651)">
            <rect width="18" height="16" class="cls-6" rx="2"/>
            <rect width="16.5" height="14.5" x=".75" y=".75" class="cls-2" rx="1.25"/>
        </g>
        <g id="그룹_127" transform="translate(6.242 23.73)">
            <path id="선_12" d="M0 0L2.358 3.234" class="cls-4" transform="translate(.809)"/>
            <path id="선_13" d="M2.358 0L0 3.234" class="cls-4" transform="translate(.809)"/>
            <path id="선_14" d="M0 0L3.975 0" class="cls-4" transform="translate(0 1.617)"/>
        </g>
        <g id="그룹_128" transform="translate(11.811 23.73)">
            <path id="선_12-2" d="M0 0L2.358 3.234" class="cls-4" transform="translate(.809)"/>
            <path id="선_13-2" d="M2.358 0L0 3.234" class="cls-4" transform="translate(.809)"/>
            <path id="선_14-2" d="M0 0L3.975 0" class="cls-4" transform="translate(0 1.617)"/>
        </g>
        <g id="그룹_129" transform="translate(17.38 23.73)">
            <path id="선_12-3" d="M0 0L2.358 3.234" class="cls-4" transform="translate(.809)"/>
            <path id="선_13-3" d="M2.358 0L0 3.234" class="cls-4" transform="translate(.809)"/>
            <path id="선_14-3" d="M0 0L3.975 0" class="cls-4" transform="translate(0 1.617)"/>
        </g>
        <path id="패스_2291" fill="none" stroke="#474747" stroke-linecap="round" stroke-linejoin="round" stroke-width="1.5px" d="M9.953 12.867l2.547 2.48 4.64-4.64" transform="translate(.456 .945)"/>
    </g>
</svg>
