<svg xmlns="http://www.w3.org/2000/svg" width="148.455" height="38.696" viewBox="0 0 148.455 38.696">
    <defs>
        <style>
            .cls-1{fill:#000950}
        </style>
    </defs>
    <g id="TMAP_BI" transform="translate(-56 -71)">
        <g id="그룹_1811" transform="translate(94.969 72.147)">
            <path id="패스_2349" d="M-25.882-15.051v2.233a5.753 5.753 0 0 1 2.015-1.99 5.342 5.342 0 0 1 2.654-.649 5.208 5.208 0 0 1 2.686.671 4.286 4.286 0 0 1 1.751 2.086 5.77 5.77 0 0 1 .87-1.138 5.362 5.362 0 0 1 1.113-.866 5.489 5.489 0 0 1 1.323-.555 5.655 5.655 0 0 1 1.508-.2 5.787 5.787 0 0 1 2.052.352 4.107 4.107 0 0 1 1.61 1.085 5.064 5.064 0 0 1 1.044 1.867 8.677 8.677 0 0 1 .373 2.7v8.356q0 .142-.025.315a1.174 1.174 0 0 1-.149.46 1.323 1.323 0 0 1-.3.355 1.336 1.336 0 0 1-.41.232 1.447 1.447 0 0 1-.493.083 1.447 1.447 0 0 1-.498-.081 1.336 1.336 0 0 1-.41-.232 1.268 1.268 0 0 1-.294-.355 1.31 1.31 0 0 1-.152-.46q-.022-.174-.025-.315t0-.207v-7.947a7.767 7.767 0 0 0-.2-1.881 3.388 3.388 0 0 0-.573-1.258 2.174 2.174 0 0 0-.921-.7 3.317 3.317 0 0 0-1.24-.217 4.128 4.128 0 0 0-1.49.257 3.079 3.079 0 0 0-1.153.768A3.483 3.483 0 0 0-15.961-11a5.592 5.592 0 0 0-.265 1.805V-1.1q0 .142-.025.315a1.174 1.174 0 0 1-.149.46 1.323 1.323 0 0 1-.3.355 1.336 1.336 0 0 1-.41.232 1.447 1.447 0 0 1-.49.086 1.447 1.447 0 0 1-.5-.083 1.336 1.336 0 0 1-.41-.232 1.268 1.268 0 0 1-.29-.356 1.31 1.31 0 0 1-.152-.46q-.022-.174-.025-.315t0-.207v-7.946a7.767 7.767 0 0 0-.2-1.881 3.388 3.388 0 0 0-.573-1.258 2.174 2.174 0 0 0-.921-.7 3.317 3.317 0 0 0-1.24-.217 4.128 4.128 0 0 0-1.49.257 3.079 3.079 0 0 0-1.153.768A3.483 3.483 0 0 0-25.3-11a5.592 5.592 0 0 0-.265 1.805V-1.1q0 .142-.025.315a1.174 1.174 0 0 1-.149.46 1.323 1.323 0 0 1-.3.355 1.336 1.336 0 0 1-.41.232 1.447 1.447 0 0 1-.493.083 1.447 1.447 0 0 1-.493-.083 1.336 1.336 0 0 1-.41-.232 1.268 1.268 0 0 1-.294-.355 1.31 1.31 0 0 1-.152-.46q-.022-.174-.025-.315t0-.207v-13.744zm36.511 13.76v.207q0 .142-.029.315a1.174 1.174 0 0 1-.149.46 1.323 1.323 0 0 1-.3.355 1.336 1.336 0 0 1-.41.232 1.447 1.447 0 0 1-.493.083 1.447 1.447 0 0 1-.49-.082 1.384 1.384 0 0 1-.413-.232 1.24 1.24 0 0 1-.3-.355A1.211 1.211 0 0 1 7.9-.769q-.022-.174-.025-.315t0-.207v-7.873a5.524 5.524 0 0 0-.156-1.374 4.013 4.013 0 0 0-.433-1.062 3.251 3.251 0 0 0-.649-.787 3.373 3.373 0 0 0-.816-.529 4.069 4.069 0 0 0-.932-.3 5.221 5.221 0 0 0-.99-.094 4.933 4.933 0 0 0-1.767.31 3.522 3.522 0 0 0-1.425 1.012 5.02 5.02 0 0 0-.953 1.823 9.358 9.358 0 0 0-.348 2.74 8.723 8.723 0 0 0 .319 2.5 5.11 5.11 0 0 0 .888 1.764 3.586 3.586 0 0 0 1.348 1.048 4.177 4.177 0 0 0 1.707.344 5.218 5.218 0 0 0 .866-.072 5.765 5.765 0 0 0 .932-.247q.13-.043.286-.08a1.2 1.2 0 0 1 .266-.032 1.084 1.084 0 0 1 .352.058.832.832 0 0 1 .3.174.864.864 0 0 1 .2.283.916.916 0 0 1 .076.384.924.924 0 0 1-.17.537 1.69 1.69 0 0 1-.457.439 3.338 3.338 0 0 1-.663.337 5.678 5.678 0 0 1-.8.239 7.73 7.73 0 0 1-.852.141 7.65 7.65 0 0 1-.83.047A6.959 6.959 0 0 1 .468-.073a5.536 5.536 0 0 1-2.074-1.5 6.946 6.946 0 0 1-1.33-2.436 10.753 10.753 0 0 1-.471-3.331 10.572 10.572 0 0 1 .533-3.505A7.256 7.256 0 0 1-1.4-13.387a6.118 6.118 0 0 1 2.227-1.548 7.318 7.318 0 0 1 2.784-.522 6.459 6.459 0 0 1 2.733.555 5.1 5.1 0 0 1 1.994 1.62l.2-1.769h2.088zm7.047-13.761v2.32a5.377 5.377 0 0 1 .982-1.207 5.589 5.589 0 0 1 1.222-.848 5.987 5.987 0 0 1 1.381-.5 6.466 6.466 0 0 1 1.461-.167 7.317 7.317 0 0 1 2.7.479 5.539 5.539 0 0 1 2.088 1.428 6.546 6.546 0 0 1 1.348 2.374 10.424 10.424 0 0 1 .479 3.317 11.436 11.436 0 0 1-.497 3.506 7.477 7.477 0 0 1-1.377 2.574 5.789 5.789 0 0 1-2.117 1.584 6.682 6.682 0 0 1-2.712.54A8.864 8.864 0 0 1 20.927.21a4.683 4.683 0 0 1-1.077-.326 1.7 1.7 0 0 1-.584-.435 1.082 1.082 0 0 1-.228-.725.952.952 0 0 1 .091-.424.943.943 0 0 1 .236-.308A1.029 1.029 0 0 1 19.7-2.2a1.167 1.167 0 0 1 .384-.065 1.25 1.25 0 0 1 .265.029q.134.029.228.058.3.1.732.21a4.464 4.464 0 0 0 1.066.109 4.253 4.253 0 0 0 1.689-.323 3.2 3.2 0 0 0 1.286-1.012 5 5 0 0 0 .823-1.78 10.3 10.3 0 0 0 .29-2.625 9.589 9.589 0 0 0-.312-2.617 4.958 4.958 0 0 0-.866-1.773 3.318 3.318 0 0 0-1.33-1 4.418 4.418 0 0 0-1.7-.319 4.694 4.694 0 0 0-1.664.29 3.585 3.585 0 0 0-1.345.888 4.181 4.181 0 0 0-.9 1.515 6.512 6.512 0 0 0-.326 2.179V5.514q0 .142-.025.315a1.174 1.174 0 0 1-.149.46 1.309 1.309 0 0 1-.707.587 1.5 1.5 0 0 1-.986 0 1.336 1.336 0 0 1-.41-.232 1.268 1.268 0 0 1-.294-.355 1.31 1.31 0 0 1-.152-.46q-.022-.174-.025-.315t0-.207v-20.358z" class="cls-1" transform="translate(31.03 27.854)"/>
            <path id="패스_2350" d="M-2.808-10.1a.8.8 0 0 1 .6.792q0 .792-.84.792a.841.841 0 0 1-.264-.048 15.483 15.483 0 0 1-4.5-1.74 8.327 8.327 0 0 1-2.988-2.58 7.553 7.553 0 0 1-2.928 2.568 16.259 16.259 0 0 1-4.56 1.776 1.616 1.616 0 0 1-.264.024.711.711 0 0 1-.816-.792.792.792 0 0 1 .576-.792 15.025 15.025 0 0 0 5.064-2.76 4.889 4.889 0 0 0 1.632-3.36h-6.336v-1.8h15.264v1.8h-6.36a5.1 5.1 0 0 0 1.692 3.408A14.593 14.593 0 0 0-2.808-10.1zm1.632 6h-8.4v5.972a1.2 1.2 0 0 1-.372.936 1.235 1.235 0 0 1-.852.336 1.222 1.222 0 0 1-.864-.336 1.218 1.218 0 0 1-.36-.936V-4.1h-9v-1.8h19.848a.806.806 0 0 1 .912.912.8.8 0 0 1-.912.888zm22.632-6.144h-3.192v9.48a1.149 1.149 0 0 1-.36.9 1.247 1.247 0 0 1-.864.324 1.2 1.2 0 0 1-.852-.324 1.169 1.169 0 0 1-.348-.9v-17.452h2.424v6.192h3.192zm-7.92 4.8a.818.818 0 0 1 .408.72.893.893 0 0 1-.228.6.741.741 0 0 1-.588.264.9.9 0 0 1-.408-.1 11.2 11.2 0 0 1-2.928-2.016A9.628 9.628 0 0 1 7.56-8.808 8.541 8.541 0 0 1 5.4-5.88a12.887 12.887 0 0 1-3 2.16 1.229 1.229 0 0 1-.456.1.794.794 0 0 1-.6-.252.826.826 0 0 1-.24-.588.789.789 0 0 1 .384-.672 12.514 12.514 0 0 0 3.528-3.556 9.8 9.8 0 0 0 1.224-5.04v-.6h-4.7v-1.8h4.748v-3.264h2.448v3.264h4.776v1.8H8.784v.6a8.986 8.986 0 0 0 1.3 4.92 12.4 12.4 0 0 0 3.452 3.36z" class="cls-1" transform="translate(88.03 30.854)"/>
        </g>
        <g id="그룹_1812" transform="translate(56 71)">
            <path id="패스_2273" fill="#ee7609" d="M258.4 365.658V357.2c0-2.252.628-4.2 2.279-4.8l7.038-2.509a6.323 6.323 0 0 0 .478-2.563c-.087-4.278-2.433-7.382-5.668-8.445l-19.277-6.033 5.029-1.8a2.876 2.876 0 0 1 .9-.148 3.315 3.315 0 0 1 .939.145l19.669 6.151c3.423 1.141 4.7 5.236 4.7 7.45 0 1.8-.613 3.871-2.522 4.566-1.7.618-6.791 2.443-6.791 2.443a7.478 7.478 0 0 0-.48 3.088c0 1.036-.017 6.617-.017 7.617 0 2.4-1.154 4.572-3.369 4.572a4.361 4.361 0 0 1-2.912-1.275" transform="translate(-238.759 -330.901)"/>
            <path id="패스_2274" fill="#e0002a" d="M239.669 354.986a9.611 9.611 0 0 1 1.541 5.117v7.091c0 4.39 2.05 7.968 5.428 8.989l-5.213 1.781a3.168 3.168 0 0 1-2.686-.4c-2.535-1.612-3.873-4.1-3.873-7.94 0-1.8-.013-4.269-.013-7.443a9.549 9.549 0 0 0-1.98-5.488 6.8 6.8 0 0 0-3.278-2.385c-2.565-.906-4.636-4.2-4.636-7.439 0-2.784 1.43-4.537 3.332-4.672a2.909 2.909 0 0 1 1.088.145c1.129.34 2.04.651 2.04.651-.631 3.219 1.266 8.159 5.092 9.5a5.873 5.873 0 0 1 3.157 2.5" transform="translate(-224.959 -339.415)"/>
        </g>
    </g>
</svg>
