<svg xmlns="http://www.w3.org/2000/svg" width="116.986" height="30.493" viewBox="0 0 116.986 30.493">
    <defs>
        <style>
            .cls-1{fill:#fff}
        </style>
    </defs>
    <g id="ic_BI" transform="translate(-56 -71)">
        <g id="그룹_1811" transform="translate(86.841 72.341)">
            <path id="패스_2345" d="M-20.528-11.937v1.771a4.563 4.563 0 0 1 1.6-1.578 4.237 4.237 0 0 1 2.1-.515 4.13 4.13 0 0 1 2.13.532 3.4 3.4 0 0 1 1.389 1.653 4.577 4.577 0 0 1 .69-.9 4.252 4.252 0 0 1 .883-.687 4.353 4.353 0 0 1 1.049-.44 4.485 4.485 0 0 1 1.2-.155 4.59 4.59 0 0 1 1.627.279 3.257 3.257 0 0 1 1.274.86 4.016 4.016 0 0 1 .827 1.477 6.882 6.882 0 0 1 .3 2.142v6.627q0 .112-.02.25a.931.931 0 0 1-.121.365 1.049 1.049 0 0 1-.236.282 1.06 1.06 0 0 1-.328.184 1.147 1.147 0 0 1-.391.066A1.147 1.147 0 0 1-6.946.21a1.06 1.06 0 0 1-.325-.184A1.006 1.006 0 0 1-7.5-.256a1.039 1.039 0 0 1-.121-.365q-.017-.138-.02-.25t0-.164v-6.3A6.16 6.16 0 0 0-7.8-8.829a2.687 2.687 0 0 0-.454-1 1.724 1.724 0 0 0-.73-.558 2.631 2.631 0 0 0-.983-.172 3.274 3.274 0 0 0-1.182.2 2.442 2.442 0 0 0-.914.609 2.763 2.763 0 0 0-.592 1.021 4.435 4.435 0 0 0-.21 1.432v6.42q0 .112-.02.25a.931.931 0 0 1-.118.365 1.049 1.049 0 0 1-.236.282 1.06 1.06 0 0 1-.331.19 1.147 1.147 0 0 1-.391.066 1.147 1.147 0 0 1-.391-.066 1.06 1.06 0 0 1-.325-.184 1.006 1.006 0 0 1-.233-.282 1.039 1.039 0 0 1-.121-.365q-.017-.138-.02-.25t0-.164v-6.3a6.16 6.16 0 0 0-.155-1.492 2.687 2.687 0 0 0-.454-1 1.724 1.724 0 0 0-.73-.558 2.631 2.631 0 0 0-.983-.172 3.274 3.274 0 0 0-1.182.2 2.442 2.442 0 0 0-.914.609 2.763 2.763 0 0 0-.592 1.021 4.435 4.435 0 0 0-.21 1.432v6.42q0 .112-.02.25a.931.931 0 0 1-.118.365 1.049 1.049 0 0 1-.236.282 1.06 1.06 0 0 1-.325.184 1.147 1.147 0 0 1-.391.066 1.147 1.147 0 0 1-.397-.062 1.06 1.06 0 0 1-.325-.184 1.006 1.006 0 0 1-.233-.282 1.039 1.039 0 0 1-.121-.365q-.017-.138-.02-.25t0-.164v-10.9zM8.43-1.023v.164q0 .112-.02.25a.931.931 0 0 1-.118.365 1.049 1.049 0 0 1-.236.282 1.06 1.06 0 0 1-.325.184 1.147 1.147 0 0 1-.391.066 1.147 1.147 0 0 1-.394-.067 1.1 1.1 0 0 1-.328-.184.984.984 0 0 1-.236-.282.96.96 0 0 1-.114-.365q-.017-.138-.02-.25t0-.164v-6.244a4.381 4.381 0 0 0-.124-1.09 3.183 3.183 0 0 0-.345-.842 2.578 2.578 0 0 0-.515-.624 2.675 2.675 0 0 0-.647-.42 3.227 3.227 0 0 0-.739-.236 4.141 4.141 0 0 0-.785-.075 3.912 3.912 0 0 0-1.4.247 2.794 2.794 0 0 0-1.13.8A3.981 3.981 0 0 0-.2-8.062a7.422 7.422 0 0 0-.271 2.174 6.919 6.919 0 0 0 .253 1.981 4.053 4.053 0 0 0 .7 1.4 2.844 2.844 0 0 0 1.069.831A3.313 3.313 0 0 0 2.91-1.4a4.139 4.139 0 0 0 .69-.061 4.572 4.572 0 0 0 .739-.2q.1-.034.227-.063a.952.952 0 0 1 .21-.029.86.86 0 0 1 .279.046.66.66 0 0 1 .236.138.685.685 0 0 1 .161.224.727.727 0 0 1 .06.3.733.733 0 0 1-.135.426 1.34 1.34 0 0 1-.362.348 2.647 2.647 0 0 1-.526.267A4.5 4.5 0 0 1 3.853.2a6.131 6.131 0 0 1-.676.112 6.067 6.067 0 0 1-.658.037 5.519 5.519 0 0 1-2.148-.4 4.391 4.391 0 0 1-1.645-1.194 5.509 5.509 0 0 1-1.055-1.932A8.528 8.528 0 0 1-2.7-5.819 8.384 8.384 0 0 1-2.28-8.6a5.755 5.755 0 0 1 1.17-2.018 4.852 4.852 0 0 1 1.766-1.227 5.8 5.8 0 0 1 2.208-.414 5.123 5.123 0 0 1 2.168.44 4.047 4.047 0 0 1 1.581 1.285l.161-1.4H8.43zm5.589-10.914v1.84a4.265 4.265 0 0 1 .779-.957 4.433 4.433 0 0 1 .969-.673 4.749 4.749 0 0 1 1.1-.4 5.128 5.128 0 0 1 1.159-.132 5.8 5.8 0 0 1 2.139.38 4.393 4.393 0 0 1 1.656 1.133 5.192 5.192 0 0 1 1.069 1.883 8.267 8.267 0 0 1 .379 2.631 9.07 9.07 0 0 1-.391 2.783 5.93 5.93 0 0 1-1.092 2.041A4.591 4.591 0 0 1 20.1-.152a5.3 5.3 0 0 1-2.15.428A7.03 7.03 0 0 1 16.6.167a3.714 3.714 0 0 1-.854-.259 1.351 1.351 0 0 1-.463-.345.858.858 0 0 1-.181-.575.755.755 0 0 1 .072-.336.748.748 0 0 1 .187-.244.816.816 0 0 1 .264-.149.926.926 0 0 1 .3-.052.991.991 0 0 1 .21.023q.106.023.181.046.236.081.581.167a3.541 3.541 0 0 0 .845.086 3.373 3.373 0 0 0 1.34-.256 2.535 2.535 0 0 0 1.018-.806 3.969 3.969 0 0 0 .653-1.412 8.173 8.173 0 0 0 .23-2.082A7.605 7.605 0 0 0 20.74-8.1a3.932 3.932 0 0 0-.687-1.406A2.631 2.631 0 0 0 19-10.3a3.5 3.5 0 0 0-1.346-.253 3.723 3.723 0 0 0-1.32.23 2.843 2.843 0 0 0-1.067.7 3.316 3.316 0 0 0-.713 1.2 5.165 5.165 0 0 0-.259 1.728V4.369q0 .112-.02.25a.931.931 0 0 1-.118.365 1.038 1.038 0 0 1-.561.466 1.189 1.189 0 0 1-.782 0 1.06 1.06 0 0 1-.325-.184 1.006 1.006 0 0 1-.233-.282 1.039 1.039 0 0 1-.121-.365q-.017-.138-.02-.25t0-.164v-16.142z" class="cls-1" transform="translate(24.159 21.659)"/>
            <path id="패스_2346" d="M-2.223-8a.63.63 0 0 1 .475.627q0 .627-.665.627a.666.666 0 0 1-.209-.038 12.257 12.257 0 0 1-3.562-1.377A6.593 6.593 0 0 1-8.55-10.2a5.979 5.979 0 0 1-2.318 2.03 12.872 12.872 0 0 1-3.61 1.406 1.279 1.279 0 0 1-.209.019.563.563 0 0 1-.646-.627.627.627 0 0 1 .456-.628 11.894 11.894 0 0 0 4.009-2.185 3.87 3.87 0 0 0 1.292-2.66h-5.016v-1.425h12.084v1.425h-5.035a4.039 4.039 0 0 0 1.34 2.7A11.552 11.552 0 0 0-2.223-8zm1.292 4.75h-6.65v4.732a.948.948 0 0 1-.295.741.977.977 0 0 1-.675.266.967.967 0 0 1-.684-.266.964.964 0 0 1-.285-.741v-4.731h-7.125v-1.425H-.931a.638.638 0 0 1 .722.722.63.63 0 0 1-.722.703zm17.917-4.863h-2.527v7.5a.91.91 0 0 1-.285.713.987.987 0 0 1-.684.257.953.953 0 0 1-.674-.257.926.926 0 0 1-.276-.713v-13.808h1.919v4.9h2.527zm-6.27 3.8a.647.647 0 0 1 .323.57.707.707 0 0 1-.181.475.587.587 0 0 1-.465.209.713.713 0 0 1-.323-.076 8.862 8.862 0 0 1-2.318-1.6 7.622 7.622 0 0 1-1.767-2.238 6.761 6.761 0 0 1-1.71 2.318A10.2 10.2 0 0 1 1.9-2.945a.973.973 0 0 1-.361.076.629.629 0 0 1-.475-.2.654.654 0 0 1-.19-.466.625.625 0 0 1 .3-.532 9.907 9.907 0 0 0 2.797-2.811 7.759 7.759 0 0 0 .969-3.99v-.475H1.216v-1.425h3.762v-2.584h1.938v2.584H10.7v1.425H6.954v.475A7.114 7.114 0 0 0 7.98-6.973a9.816 9.816 0 0 0 2.736 2.66z" class="cls-1" transform="translate(69.159 23.659)"/>
        </g>
        <g id="그룹_1812" transform="translate(56 71)">
            <path id="패스_2273" d="M255.19 358.291v-6.663c0-1.774.5-3.312 1.8-3.785l5.547-1.977a4.983 4.983 0 0 0 .377-2.02 6.8 6.8 0 0 0-4.467-6.655l-15.191-4.754 3.963-1.419a2.266 2.266 0 0 1 .712-.117 2.611 2.611 0 0 1 .74.114l15.5 4.848c2.7.9 3.7 4.126 3.7 5.871 0 1.416-.483 3.05-1.987 3.6-1.337.487-5.351 1.925-5.351 1.925a5.894 5.894 0 0 0-.378 2.433c0 .817-.013 5.215-.013 6 0 1.888-.91 3.6-2.655 3.6a3.436 3.436 0 0 1-2.295-1.005" class="cls-1" transform="translate(-239.711 -330.901)"/>
            <path id="패스_2274" d="M236.551 352.273a7.574 7.574 0 0 1 1.214 4.032v5.588c0 3.459 1.616 6.279 4.277 7.083l-4.108 1.4a2.5 2.5 0 0 1-2.117-.318c-2-1.27-3.052-3.234-3.052-6.257 0-1.421-.01-3.364-.01-5.865a7.525 7.525 0 0 0-1.561-4.325 5.362 5.362 0 0 0-2.583-1.879c-2.021-.714-3.653-3.311-3.653-5.862 0-2.193 1.127-3.576 2.626-3.682a2.294 2.294 0 0 1 .857.115c.889.268 1.608.513 1.608.513-.5 2.537 1 6.429 4.013 7.483a4.628 4.628 0 0 1 2.488 1.97" class="cls-1" transform="translate(-224.959 -340.003)"/>
        </g>
    </g>
</svg>
