<svg xmlns="http://www.w3.org/2000/svg" id="ic_car" width="170.719" height="127.777" viewBox="0 0 170.719 127.777">
    <defs>
        <style>
            .cls-3{fill:#ccd1d9}
        </style>
    </defs>
    <path id="패스_2304" fill="#e8ebef" d="M868.1 521.018a7.211 7.211 0 0 0-7.211-7.21h-13.857l-9.394-16.208a25.6 25.6 0 0 0-23.1-14.578H749.4a25.6 25.6 0 0 0-23.1 14.578l-9.4 16.208h-12.31a7.207 7.207 0 0 0-1.669 14.219l4.827 1.569-2.82 4.865a58.323 58.323 0 0 0-5.681 25.107v42.71a8.519 8.519 0 0 0 8.519 8.518h10.312a8.518 8.518 0 0 0 8.518-8.518v-7.174h110.74v7.174a8.518 8.518 0 0 0 8.518 8.518h10.312a8.519 8.519 0 0 0 8.519-8.518v-42.71A58.321 58.321 0 0 0 859 534.464l-2.576-4.444 6.128-1.99a7.208 7.208 0 0 0 5.548-7.012z" transform="translate(-697.379 -483.022)"/>
    <path id="패스_2305" d="M743.638 490.67h71.356a11.635 11.635 0 0 1 10.089 5.839l15.2 26.692a3.669 3.669 0 0 1-2.992 5.791h-114.82a3.669 3.669 0 0 1-2.992-5.791l14.071-26.692a11.634 11.634 0 0 1 10.088-5.839z" transform="translate(-694.524 -482.002)" style="isolation:isolate" fill="#ccd1d9"/>
    <rect id="사각형_332" width="56.466" height="10.76" class="cls-3" rx="2.907" transform="translate(57.126 92.508)"/>
    <g id="그룹_1862" transform="translate(17.958 61.863)">
        <path id="패스_2306" d="M746.1 550.431c0-5.5-5.558-6.384-9.6-8.076-4.743-1.987-9.927-5.576-15.325-4.574a9.75 9.75 0 0 0 1.307 19.322h.16c.11 0 .218.016.329.016s.219-.012.329-.016h15.781c.11 0 .218.016.329.016s.22-.011.329-.016h.076a6.682 6.682 0 0 0 6.285-6.672z" class="cls-3" transform="translate(-713.225 -537.608)"/>
        <path id="패스_2307" d="M803.159 550.431c0-5.5 5.559-6.384 9.6-8.076 4.744-1.987 9.928-5.576 15.326-4.574a9.75 9.75 0 0 1-1.307 19.322h-.16c-.11 0-.218.016-.329.016s-.219-.012-.329-.016h-15.784c-.11 0-.219.016-.33.016s-.219-.011-.329-.016h-.076a6.682 6.682 0 0 1-6.282-6.672z" class="cls-3" transform="translate(-701.236 -537.608)"/>
    </g>
</svg>
